<svg width="48" height="48" viewBox="0 0 48 48" fill="none" xmlns="http://www.w3.org/2000/svg">
<g opacity="0.03">
<path d="M26.8604 38.2973C26.1349 40.4046 25.2427 41.8841 25.1838 41.9806C24.8644 42.5043 24.2456 42.7574 23.6553 42.6161C23.3321 42.5387 15.7133 40.6567 13.3969 35.0848C13.2115 34.6387 13.0463 34.1881 12.901 33.7354C17.1039 36.2594 22.0195 37.6485 26.8604 38.2973Z" fill="white"/>
<path d="M39.5927 25.3895C39.579 25.3879 38.9611 25.3229 38.0636 25.3158C37.0063 19.0238 34.6424 12.7586 30.1291 8.24537C29.1335 7.24944 28.0697 6.30537 26.9433 5.41542C28.3882 5.00351 30.2164 4.89387 32.5196 5.35465C37.0386 6.25848 39.1623 11.1328 40.1807 15.6136C41.1425 19.8455 41.1535 23.8239 41.1535 23.9911C41.1535 24.8234 40.4307 25.4795 39.5927 25.3895Z" fill="white"/>
<path d="M31.909 38.7169C32.7219 38.7426 33.9136 38.7548 34.7281 38.7094C36.8781 38.5902 38.5894 36.8791 38.7086 34.7268C38.739 34.1701 38.7541 33.1023 38.7162 31.9099C40.6126 32.1721 43.1957 32.2398 46.3173 31.6153C47.1861 31.4418 48 32.106 48 32.9948C48 35.9636 47.0274 38.5694 45.3318 40.144C43.5459 41.8023 41.8002 43.548 40.143 45.3327C38.5684 47.0284 35.9627 48.0009 32.994 48.0009C32.1067 48.0009 31.4405 47.188 31.6146 46.3181C32.2388 43.1966 32.1712 40.6134 31.909 38.7169Z" fill="white"/>
<path d="M5.20178 20.147C11.6758 19.6946 19.6748 11.7077 20.1451 5.22008C20.1505 5.14505 20.1488 5.19016 20.1488 4.2793C23.1638 5.94412 25.849 7.94386 28.1391 10.2348C33.2327 15.3282 35.3336 23.1881 35.8189 30.3042C35.9401 32.088 35.9448 33.7385 35.8992 34.5734C35.8595 35.289 35.2881 35.8605 34.5724 35.9001C32.7787 36 29.3996 35.8678 26.1404 35.3492C21.1596 34.5537 16.1361 32.906 12.163 29.8331C12.1615 29.8028 11.4245 29.301 10.168 28.073C7.91449 25.8066 5.91898 23.1376 4.30114 20.2115L5.20178 20.147Z" fill="white"/>
<path d="M0.0868549 4.58003C0.209435 3.51788 0.549696 2.33147 1.25507 1.51533C2.80322 -0.280045 6.374 -0.132892 8.72028 0.221719C11.6354 0.662145 14.6699 1.66417 17.3351 2.86887V5.06454C16.9236 10.1531 10.0543 16.9874 5.00339 17.3404L2.92768 17.4888C1.24682 13.8117 -0.400372 8.58138 0.0868549 4.58003ZM10.3968 8.72441C11.0593 8.3788 11.3516 7.52843 10.9746 6.8224C10.6321 6.13887 9.69305 5.829 8.95344 6.31501C8.65444 6.51243 8.4347 6.82821 8.35508 7.20974C8.1312 8.40684 9.3768 9.27147 10.3968 8.72441Z" fill="white"/>
</g>
</svg>
