<svg width="83" height="84" viewBox="0 0 83 84" fill="none" xmlns="http://www.w3.org/2000/svg">
<g opacity="0.03">
<path d="M36.554 66.2226C37.8084 69.8665 39.3511 72.4247 39.453 72.5916C40.0054 73.4972 41.0752 73.9349 42.0961 73.6905C42.655 73.5567 55.829 70.3024 59.8346 60.6676C60.155 59.8963 60.4408 59.117 60.692 58.3342C53.4245 62.6987 44.9246 65.1006 36.554 66.2226Z" fill="white"/>
<path d="M14.5376 43.9027C14.5613 43.8999 15.6298 43.7875 17.1817 43.7754C19.0099 32.8954 23.0975 22.0619 30.9018 14.2577C32.6233 12.5356 34.4628 10.9031 36.4105 9.36425C33.9121 8.65198 30.7508 8.4624 26.7681 9.25916C18.9541 10.822 15.2818 19.2506 13.5209 26.9986C11.8578 34.3162 11.8387 41.1955 11.8387 41.4847C11.8387 42.9238 13.0886 44.0584 14.5376 43.9027Z" fill="white"/>
<path d="M27.8241 66.9478C26.4184 66.9923 24.3578 67.0133 22.9493 66.9348C19.2316 66.7287 16.2726 63.77 16.0663 60.0483C16.0137 59.0856 15.9876 57.2392 16.0533 55.1774C12.774 55.6308 8.30738 55.7477 2.90973 54.668C1.40735 54.368 0 55.5165 0 57.0534C0 62.1869 1.68175 66.6927 4.6137 69.4155C7.70182 72.283 10.7205 75.3016 13.586 78.3876C16.3087 81.3197 20.8144 83.0013 25.9479 83.0013C27.4822 83.0013 28.6342 81.5957 28.3332 80.0916C27.2537 74.6939 27.3707 70.2271 27.8241 66.9478Z" fill="white"/>
<path d="M74.0052 34.8374C62.8106 34.055 48.9789 20.2443 48.1656 9.02619C48.1564 8.89645 48.1593 8.97445 48.1593 7.39941C42.9459 10.2782 38.3027 13.7361 34.3427 17.6975C25.535 26.5049 21.9023 40.0959 21.0631 52.4008C20.8535 55.4852 20.8454 58.3392 20.9242 59.7829C20.9928 61.0204 21.981 62.0085 23.2185 62.077C26.3201 62.2499 32.1631 62.0212 37.7988 61.1244C46.4116 59.749 55.0979 56.8997 61.9681 51.5863C61.9707 51.5339 63.2451 50.6661 65.4177 48.5427C69.3145 44.6236 72.765 40.0086 75.5626 34.9488L74.0052 34.8374Z" fill="white"/>
<path d="M82.8498 7.91963C82.6379 6.08301 82.0495 4.0315 80.8298 2.62026C78.1528 -0.484245 71.9783 -0.229793 67.9212 0.383388C62.8805 1.14496 57.6333 2.87763 53.0247 4.96076V8.75742C53.7363 17.5564 65.6144 29.374 74.3483 29.9844L77.9376 30.241C80.844 23.8828 83.6923 14.8386 82.8498 7.91963ZM65.0222 15.086C63.8766 14.4883 63.3712 13.0179 64.0232 11.7971C64.6154 10.6151 66.2391 10.0793 67.518 10.9197C68.035 11.2611 68.415 11.8071 68.5527 12.4668C68.9398 14.5368 66.786 16.0319 65.0222 15.086Z" fill="white"/>
</g>
</svg>
