<svg width="38" height="38" viewBox="0 0 38 38" fill="none" xmlns="http://www.w3.org/2000/svg">
<g opacity="0.03">
<path d="M21.2645 30.3188C20.6901 31.9871 19.9838 33.1584 19.9372 33.2348C19.6843 33.6494 19.1945 33.8498 18.7271 33.7379C18.4712 33.6766 12.4397 32.1867 10.6059 27.7756C10.4591 27.4224 10.3283 27.0657 10.2133 26.7073C13.5406 28.7055 17.4321 29.8051 21.2645 30.3188Z" fill="white"/>
<path d="M31.3442 20.0998C31.3334 20.0986 30.8442 20.0471 30.1337 20.0415C29.2967 15.0604 27.4253 10.1004 23.8522 6.52742C23.064 5.73898 22.2218 4.99159 21.3301 4.28705C22.474 3.96095 23.9213 3.87415 25.7447 4.23893C29.3222 4.95447 31.0035 8.81331 31.8097 12.3606C32.5711 15.7108 32.5799 18.8604 32.5799 18.9928C32.5799 19.6517 32.0076 20.1711 31.3442 20.0998Z" fill="white"/>
<path d="M25.2613 30.6506C25.9048 30.6709 26.8482 30.6806 27.4931 30.6447C29.1952 30.5503 30.5499 29.1957 30.6443 27.4918C30.6684 27.051 30.6804 26.2057 30.6503 25.2617C32.1517 25.4693 34.1966 25.5228 36.6678 25.0285C37.3557 24.8911 38 25.417 38 26.1206C38 28.4709 37.23 30.5338 35.8877 31.7804C34.4739 33.0932 33.0918 34.4752 31.7799 35.8881C30.5333 37.2305 28.4705 38.0004 26.1202 38.0004C25.4178 38.0004 24.8904 37.3569 25.0282 36.6682C25.5224 34.197 25.4689 32.152 25.2613 30.6506Z" fill="white"/>
<path d="M4.11812 15.9497C9.24334 15.5915 15.5759 9.26847 15.9483 4.13248C15.9525 4.07308 15.9512 4.1088 15.9512 3.3877C18.338 4.70568 20.4638 6.28881 22.2768 8.10248C26.3093 12.1348 27.9724 18.3572 28.3567 23.9908C28.4526 25.4029 28.4563 26.7095 28.4202 27.3705C28.3888 27.9371 27.9364 28.3895 27.3698 28.4208C25.9498 28.5 23.2747 28.3953 20.6945 27.9847C16.7513 27.355 12.7745 26.0505 9.62906 23.6178C9.62787 23.5938 9.04443 23.1965 8.04972 22.2244C6.26568 20.4301 4.68589 18.3172 3.40511 16.0007L4.11812 15.9497Z" fill="white"/>
<path d="M0.0687561 3.62585C0.165798 2.78499 0.435171 1.84575 0.993594 1.19964C2.21921 -0.221702 5.04608 -0.105206 6.90355 0.175527C9.21134 0.524198 11.6137 1.31747 13.7236 2.27119V4.00942C13.3978 8.03785 7.95966 13.4483 3.96101 13.7278L2.31774 13.8453C0.98706 10.9343 -0.316965 6.79359 0.0687561 3.62585ZM8.23082 6.90682C8.75531 6.63322 8.98667 5.96 8.68819 5.40106C8.41703 4.85994 7.67366 4.61462 7.08813 4.99938C6.85143 5.15567 6.67747 5.40567 6.61443 5.70771C6.4372 6.65542 7.42329 7.33991 8.23082 6.90682Z" fill="white"/>
</g>
</svg>
