<svg width="60" height="61" viewBox="0 0 60 61" fill="none" xmlns="http://www.w3.org/2000/svg">
<g opacity="0.03">
<path d="M26.4246 48.3718C27.3314 51.006 28.4466 52.8554 28.5202 52.976C28.9195 53.6306 29.6929 53.947 30.4309 53.7704C30.8349 53.6736 40.3583 51.3211 43.2539 44.3562C43.4856 43.7986 43.6921 43.2353 43.8737 42.6694C38.6201 45.8244 32.4756 47.5608 26.4246 48.3718Z" fill="white"/>
<path d="M10.5091 32.2368C10.5262 32.2348 11.2987 32.1536 12.4205 32.1448C13.7421 24.2798 16.697 16.4483 22.3387 10.8067C23.5831 9.5618 24.9129 8.38172 26.3209 7.26928C24.5148 6.75439 22.2295 6.61734 19.3505 7.19331C13.7018 8.3231 11.0471 14.416 9.77418 20.017C8.57194 25.3069 8.55811 30.2798 8.55811 30.4889C8.55811 31.5292 9.46163 32.3494 10.5091 32.2368Z" fill="white"/>
<path d="M20.1138 48.896C19.0976 48.9281 17.608 48.9433 16.5899 48.8866C13.9024 48.7376 11.7633 46.5988 11.6142 43.9083C11.5762 43.2124 11.5573 41.8777 11.6048 40.3872C9.23421 40.715 6.00534 40.7995 2.10342 40.019C1.01736 39.8021 0 40.6323 0 41.7434C0 45.4543 1.21572 48.7116 3.3352 50.6798C5.56758 52.7527 7.74979 54.9348 9.8212 57.1657C11.7895 59.2853 15.0466 60.5009 18.7575 60.5009C19.8667 60.5009 20.6994 59.4848 20.4818 58.3975C19.7015 54.4956 19.786 51.2666 20.1138 48.896Z" fill="white"/>
<path d="M53.4977 25.6835C45.4053 25.118 35.4065 15.1343 34.8185 7.02486C34.8119 6.93107 34.814 6.98746 34.814 5.84888C31.0452 7.92991 27.6887 10.4296 24.8261 13.2933C18.4591 19.66 15.833 29.4849 15.2263 38.38C15.0748 40.6097 15.069 42.6728 15.126 43.7164C15.1756 44.6111 15.8899 45.3254 16.7845 45.3748C19.0266 45.4998 23.2504 45.3345 27.3244 44.6862C33.5505 43.6919 39.8298 41.6322 44.7962 37.7912C44.7981 37.7533 45.7194 37.126 47.2899 35.591C50.1069 32.7579 52.6012 29.4218 54.6235 25.7641L53.4977 25.6835Z" fill="white"/>
<path d="M59.8915 6.22503C59.7382 4.89735 59.3129 3.41434 58.4312 2.39416C56.496 0.149944 52.0325 0.333885 49.0997 0.777148C45.4558 1.32768 41.6627 2.58021 38.3311 4.08609V6.83067C38.8455 13.1913 47.4321 21.7342 53.7458 22.1755L56.3404 22.361C58.4415 17.7647 60.5005 11.2267 59.8915 6.22503ZM47.004 11.4055C46.1759 10.9735 45.8106 9.91053 46.2818 9.02799C46.71 8.17359 47.8837 7.78625 48.8082 8.39376C49.182 8.64053 49.4567 9.03526 49.5562 9.51217C49.836 11.0086 48.279 12.0893 47.004 11.4055Z" fill="white"/>
</g>
</svg>
