<svg width="49" height="49" viewBox="0 0 49 49" fill="none" xmlns="http://www.w3.org/2000/svg">
<g opacity="0.03">
<path d="M21.58 39.0952C22.3206 41.2464 23.2314 42.7567 23.2915 42.8552C23.6176 43.3899 24.2492 43.6483 24.8519 43.504C25.1818 43.425 32.9593 41.5038 35.324 35.8158C35.5132 35.3604 35.6819 34.9004 35.8302 34.4382C31.5397 37.0148 26.5217 38.4329 21.58 39.0952Z" fill="white"/>
<path d="M8.58244 25.9183C8.59641 25.9167 9.22725 25.8503 10.1434 25.8432C11.2227 19.4201 13.6359 13.0243 18.2432 8.41707C19.2595 7.40039 20.3455 6.43665 21.4954 5.52816C20.0204 5.10767 18.1541 4.99575 15.8029 5.46612C11.1898 6.38878 9.02179 11.3647 7.98223 15.9388C7.0004 20.2589 6.98911 24.3201 6.98911 24.4908C6.98911 25.3404 7.72699 26.0102 8.58244 25.9183Z" fill="white"/>
<path d="M16.4263 39.5232C15.5964 39.5494 14.3799 39.5618 13.5484 39.5155C11.3536 39.3938 9.6067 37.6471 9.48492 35.4499C9.4539 34.8816 9.43848 33.7916 9.47726 32.5743C7.54127 32.842 4.90436 32.9111 1.71779 32.2736C0.830845 32.0965 0 32.7745 0 33.6819C0 36.7125 0.992839 39.3726 2.72375 40.98C4.54686 42.6729 6.32899 44.4549 8.02065 46.2768C9.62805 48.0078 12.288 49.0005 15.3186 49.0005C16.2244 49.0005 16.9045 48.1707 16.7268 47.2827C16.0896 44.0962 16.1586 41.4591 16.4263 39.5232Z" fill="white"/>
<path d="M43.6898 20.5667C37.081 20.1049 28.9153 11.9515 28.4351 5.32879C28.4297 5.2522 28.4314 5.29825 28.4314 4.36841C25.3536 6.06792 22.6124 8.10932 20.2746 10.448C15.0749 15.6475 12.9303 23.6711 12.4348 30.9355C12.3111 32.7564 12.3063 34.4413 12.3529 35.2936C12.3934 36.0242 12.9767 36.6075 13.7073 36.6479C15.5384 36.75 18.9878 36.615 22.315 36.0856C27.3996 35.2736 32.5277 33.5915 36.5836 30.4546C36.5851 30.4237 37.3375 29.9114 38.6201 28.6578C40.9206 26.3441 42.9577 23.6196 44.6092 20.6325L43.6898 20.5667Z" fill="white"/>
<path d="M48.9114 4.67544C48.7862 3.59117 48.4389 2.38004 47.7188 1.5469C46.1384 -0.285879 42.4932 -0.135661 40.0981 0.226338C37.1222 0.67594 34.0245 1.69884 31.3037 2.92864V5.17004C31.7238 10.3646 38.7362 17.3413 43.8924 17.7016L46.0114 17.8531C47.7272 14.0995 49.4087 8.76016 48.9114 4.67544ZM38.3866 8.90617C37.7103 8.55336 37.4119 7.68527 37.7968 6.96453C38.1465 6.26676 39.105 5.95043 39.8601 6.44657C40.1653 6.6481 40.3896 6.97046 40.4709 7.35994C40.6994 8.58198 39.4279 9.46463 38.3866 8.90617Z" fill="white"/>
</g>
</svg>
